<?xml version="1.0" encoding="UTF-8" standalone="no"?>
<!-- Creator: CorelDRAW (Wersja próbna) -->

<svg
   xml:space="preserve"
   width="35mm"
   height="20mm"
   version="1.1"
   style="clip-rule:evenodd;fill-rule:evenodd;image-rendering:optimizeQuality;shape-rendering:geometricPrecision;text-rendering:geometricPrecision"
   viewBox="0 0 3500 2000"
   id="svg127"
   sodipodi:docname="LogoUpdated.svg"
   inkscape:export-filename="Logo3.svg"
   inkscape:export-xdpi="96"
   inkscape:export-ydpi="96"
   inkscape:version="1.3.2 (091e20e, 2023-11-25, custom)"
   xmlns:inkscape="http://www.inkscape.org/namespaces/inkscape"
   xmlns:sodipodi="http://sodipodi.sourceforge.net/DTD/sodipodi-0.dtd"
   xmlns="http://www.w3.org/2000/svg"
   xmlns:svg="http://www.w3.org/2000/svg">
 <defs
   id="defs1">
  <style
   type="text/css"
   id="style1">
   <![CDATA[
    .fil63 {fill:#2D6EE1}
    .fil1 {fill:#2D6FE1}
    .fil2 {fill:#3373E1}
    .fil3 {fill:#3675E2}
    .fil4 {fill:#3977E2}
    .fil5 {fill:#3D7AE3}
    .fil6 {fill:#407CE3}
    .fil7 {fill:#437EE4}
    .fil8 {fill:#4781E4}
    .fil9 {fill:#4A83E5}
    .fil10 {fill:#4D85E5}
    .fil11 {fill:#5187E6}
    .fil12 {fill:#548AE6}
    .fil13 {fill:#578CE6}
    .fil14 {fill:#5A8EE7}
    .fil15 {fill:#5E91E7}
    .fil16 {fill:#6193E8}
    .fil17 {fill:#6495E8}
    .fil18 {fill:#6897E9}
    .fil19 {fill:#6B9AE9}
    .fil20 {fill:#6E9CEA}
    .fil21 {fill:#729EEA}
    .fil22 {fill:#75A1EB}
    .fil23 {fill:#78A3EB}
    .fil24 {fill:#7CA5EC}
    .fil25 {fill:#7FA7EC}
    .fil26 {fill:#82AAEC}
    .fil27 {fill:#85ACED}
    .fil28 {fill:#89AEED}
    .fil29 {fill:#8CB1EE}
    .fil30 {fill:#8FB3EE}
    .fil31 {fill:#93B5EF}
    .fil32 {fill:#96B8EF}
    .fil33 {fill:#99BAF0}
    .fil34 {fill:#9DBCF0}
    .fil35 {fill:#A0BEF1}
    .fil36 {fill:#A3C1F1}
    .fil37 {fill:#A7C3F2}
    .fil38 {fill:#AAC5F2}
    .fil39 {fill:#ADC8F2}
    .fil40 {fill:#B0CAF3}
    .fil41 {fill:#B4CCF3}
    .fil42 {fill:#B7CEF4}
    .fil43 {fill:#BAD1F4}
    .fil44 {fill:#BED3F5}
    .fil45 {fill:#C1D5F5}
    .fil46 {fill:#C4D8F6}
    .fil47 {fill:#C8DAF6}
    .fil48 {fill:#CBDCF7}
    .fil49 {fill:#CEDEF7}
    .fil50 {fill:#D2E1F8}
    .fil51 {fill:#D5E3F8}
    .fil52 {fill:#D8E5F8}
    .fil53 {fill:#DBE8F9}
    .fil54 {fill:#DFEAF9}
    .fil55 {fill:#E2ECFA}
    .fil56 {fill:#E5EEFA}
    .fil57 {fill:#E9F1FB}
    .fil58 {fill:#ECF3FB}
    .fil59 {fill:#EFF5FC}
    .fil60 {fill:#F3F8FC}
    .fil61 {fill:#F6FAFD}
    .fil62 {fill:#F9FCFD}
    .fil0 {fill:#FDFFFE}
   ]]>
  </style>
 <filter
   style="color-interpolation-filters:sRGB"
   inkscape:label="Drop Shadow"
   id="filter197"
   x="-0.022986154"
   y="-0.039170392"
   width="1.0515472"
   height="1.0972773"><feFlood
     result="flood"
     in="SourceGraphic"
     flood-opacity="0.266667"
     flood-color="rgb(0,0,0)"
     id="feFlood196" /><feGaussianBlur
     result="blur"
     in="SourceGraphic"
     stdDeviation="23.708206"
     id="feGaussianBlur196" /><feOffset
     result="offset"
     in="blur"
     dx="13.800000"
     dy="27.507599"
     id="feOffset196" /><feComposite
     result="comp1"
     operator="in"
     in="flood"
     in2="offset"
     id="feComposite196" /><feComposite
     result="comp2"
     operator="over"
     in="SourceGraphic"
     in2="comp1"
     id="feComposite197" /></filter></defs>
 <g
   id="Warstwa_x0020_1"
   inkscape:label="Warstwa 1"
   inkscape:groupmode="layer">
  <metadata
   id="CorelCorpID_0Corel-Layer" />
  
  
  <g
   id="Logo-2"
   style="clip-rule:evenodd;fill-rule:evenodd;filter:url(#filter197);image-rendering:optimizeQuality;shape-rendering:geometricPrecision;text-rendering:geometricPrecision"
   transform="translate(341.75246,-12.169753)">
   <path
   class="fil0"
   d="m 2288.77,365.83 182.11,146.11 c -46.59,-59.29 -110.11,-108 -182.11,-146.11 z"
   id="path1-8"
   style="fill:#fdfffe" />
   <path
   class="fil1"
   d="m 351.23,1011.67 -21.17,-16.94 c 6.35,6.35 14.82,10.59 21.17,16.94 z"
   id="path2-9"
   style="fill:#2d6fe1" />
   <path
   class="fil1"
   d="M 457.11,1070.96 262.3,916.38 c 31.76,48.71 78.35,93.17 135.52,124.94 19.06,10.59 40.23,19.06 59.29,29.64 z"
   id="path3-6"
   style="fill:#2d6fe1" />
   <path
   class="fil1"
   d="m 270.77,929.09 165.17,131.29 c 33.88,16.94 65.64,33.88 99.52,50.82 L 239.01,871.92 c 10.58,19.05 21.17,38.11 31.76,57.17 z"
   id="path4-9"
   style="fill:#2d6fe1" />
   <path
   class="fil1"
   d="m 245.36,882.5 271.04,218.11 c 31.76,14.82 63.53,29.64 93.17,44.47 L 226.3,835.92 c 4.24,16.94 10.59,31.76 19.06,46.58 z"
   id="path5-9"
   style="fill:#2d6fe1" />
   <path
   class="fil1"
   d="m 228.42,844.39 364.21,292.22 c 29.65,14.82 59.29,27.52 88.94,42.35 L 217.83,804.15 c 2.12,14.83 6.35,27.53 10.59,40.24 z"
   id="path6-9"
   style="fill:#2d6fe1" />
   <path
   class="fil1"
   d="m 217.83,812.62 446.8,357.87 c 29.64,12.7 59.29,27.52 88.93,40.23 L 211.48,774.51 c 2.12,12.7 4.23,25.41 6.35,38.11 z"
   id="path7-1"
   style="fill:#2d6fe1" />
   <path
   class="fil1"
   d="m 211.48,782.98 523.03,419.27 c 29.64,12.7 59.29,27.53 88.93,40.23 l -616.2,-495.5 c 2.12,12.71 2.12,23.29 4.24,36 z"
   id="path8-1"
   style="fill:#2d6fe1" />
   <path
   class="fil1"
   d="m 209.36,755.45 597.14,478.56 c 29.65,14.83 59.29,27.53 88.94,42.35 L 205.13,721.57 c 2.11,10.59 2.11,23.29 4.23,33.88 z"
   id="path9-1"
   style="fill:#2d6fe1" />
   <path
   class="fil1"
   d="m 207.24,727.92 669.14,539.97 c 31.76,14.83 63.53,29.65 95.29,44.47 L 205.13,698.28 c 0,8.47 0,19.06 2.11,29.64 z"
   id="path10-0"
   style="fill:#2d6fe1" />
   <path
   class="fil1"
   d="m 205.13,702.51 747.48,601.38 c 33.88,14.82 65.64,31.76 99.53,48.7 l -844.9,-677.6 c 0,8.47 -2.11,19.05 -2.11,27.52 z"
   id="path11-2"
   style="fill:#2d6fe1" />
   <path
   class="fil1"
   d="m 207.24,679.22 823.72,662.79 c 29.65,14.82 57.17,29.64 86.82,46.58 8.47,4.24 16.94,8.47 27.53,14.82 L 209.36,651.69 c 0,8.47 -2.12,19.06 -2.12,27.53 z"
   id="path12-1"
   style="fill:#2d6fe1" />
   <path
   class="fil1"
   d="m 209.36,655.93 910.54,732.66 c 40.23,21.18 82.58,46.59 129.17,74.12 L 213.6,630.52 c -2.12,8.47 -2.12,16.94 -4.24,25.41 z"
   id="path13-3"
   style="fill:#2d6fe1" />
   <path
   class="fil1"
   d="m 213.6,634.75 1010.05,813.13 c 40.24,23.3 84.71,48.71 129.17,72 L 217.83,609.34 c -2.12,8.47 -4.23,16.94 -4.23,25.41 z"
   id="path14-3"
   style="fill:#2d6fe1" />
   <path
   class="fil1"
   d="m 217.83,613.58 1109.58,893.59 c 38.12,21.18 78.35,42.35 118.58,63.53 L 224.18,588.17 c -2.11,8.47 -4.23,16.94 -6.35,25.41 z"
   id="path15-5"
   style="fill:#2d6fe1" />
   <path
   class="fil1"
   d="m 222.07,592.4 1200.63,965.59 c 33.88,19.06 67.76,36 101.64,50.82 L 230.54,569.11 c -4.24,8.47 -6.36,16.94 -8.47,23.29 z"
   id="path16-6"
   style="fill:#2d6fe1" />
   <path
   class="fil1"
   d="m 228.42,573.34 1276.87,1027 c 29.64,14.83 59.29,27.53 88.93,40.24 L 236.89,550.05 c -2.12,8.47 -6.35,14.82 -8.47,23.29 z"
   id="path17-2"
   style="fill:#2d6fe1" />
   <path
   class="fil1"
   d="m 234.77,554.29 1342.51,1079.93 c 25.41,10.59 50.82,21.18 76.23,29.65 L 245.36,530.99 c -4.24,8.47 -6.35,14.83 -10.59,23.3 z"
   id="path18-7"
   style="fill:#2d6fe1" />
   <path
   class="fil1"
   d="m 243.24,535.23 1395.45,1122.29 c 23.29,8.47 44.47,16.94 67.76,23.29 L 253.83,514.05 c -4.24,6.36 -8.47,14.83 -10.59,21.18 z"
   id="path19-0"
   style="fill:#2d6fe1" />
   <path
   class="fil1"
   d="m 251.71,518.29 1442.04,1160.4 c 21.17,6.36 40.23,10.59 59.29,16.94 L 641.34,802.04 c -36,-19.06 -78.35,-44.47 -97.41,-80.47 L 262.3,497.11 c -4.24,6.36 -8.47,14.83 -10.59,21.18 z"
   id="path20-5"
   style="fill:#2d6fe1" />
   <path
   class="fil1"
   d="M 260.18,501.35 552.4,736.39 c -10.59,-14.82 -19.06,-29.64 -21.18,-48.7 L 272.89,480.17 c -4.24,6.36 -8.47,12.71 -12.71,21.18 z m 357.86,285.86 1124.41,904.19 c 16.94,6.35 36,10.59 52.94,12.7 L 726.04,844.39 c -23.3,-12.71 -48.71,-25.41 -74.12,-38.12 -10.58,-4.23 -23.29,-10.59 -33.88,-19.06 z"
   id="path21-1"
   style="fill:#2d6fe1" />
   <path
   class="fil1"
   d="m 270.77,484.41 262.57,211.75 c -2.12,-10.59 -2.12,-21.17 0,-31.76 L 283.47,463.23 c -4.23,6.36 -8.47,14.83 -12.7,21.18 z M 704.86,833.8 1784.8,1701.99 c 16.94,4.23 33.88,6.35 48.7,8.47 L 812.85,890.97 C 776.86,869.8 740.86,852.86 704.86,833.8 Z"
   id="path22-6"
   style="fill:#2d6fe1" />
   <path
   class="fil1"
   d="m 281.36,467.47 249.86,203.28 c 2.12,-8.47 4.24,-16.94 6.36,-27.53 L 294.06,448.41 c -4.23,6.35 -8.47,12.71 -12.7,19.06 z m 510.32,410.8 1033.35,830.07 c 12.71,2.12 27.53,4.23 40.23,4.23 2.12,0 2.12,0 4.24,2.12 L 901.79,935.44 870.03,918.5 C 842.5,905.8 817.09,890.97 791.68,878.27 Z"
   id="path23-2"
   style="fill:#2d6fe1" />
   <path
   class="fil1"
   d="m 291.94,452.65 243.52,196.93 c 2.12,-8.47 6.35,-14.83 10.59,-23.3 L 306.77,433.59 c -4.24,6.35 -10.59,12.7 -14.83,19.06 z m 586.56,472.2 982.53,787.72 c 0,0 2.12,0 4.23,0 12.71,2.12 23.3,2.12 36,2.12 L 988.61,982.03 Z"
   id="path24-5"
   style="fill:#2d6fe1" />
   <path
   class="fil1"
   d="m 304.65,437.82 239.28,192.7 c 2.12,-6.35 6.35,-14.82 12.7,-21.18 L 319.47,418.77 c -6.35,6.35 -10.59,12.7 -14.82,19.05 z m 662.78,531.5 925.36,745.37 c 12.71,0 27.53,0 40.24,0 l -857.6,-688.2 z"
   id="path25-3"
   style="fill:#2d6fe1" />
   <path
   class="fil1"
   d="M 317.35,423 552.4,613.58 c 2.12,-4.24 6.35,-8.47 8.47,-10.59 2.12,-4.24 4.23,-6.35 6.35,-8.47 L 332.18,406.06 c -4.24,4.24 -10.59,10.59 -14.83,16.94 z m 736.9,592.91 870.31,698.78 c 12.7,0 25.41,0 38.11,0 l -800.42,-643.73 z"
   id="path26-5"
   style="fill:#2d6fe1" />
   <path
   class="fil1"
   d="M 330.06,408.18 565.1,596.64 c 4.24,-6.36 8.47,-12.71 14.83,-16.94 L 347,393.36 c -6.35,4.23 -12.71,10.58 -16.94,14.82 z m 811.01,652.2 813.13,654.31 c 12.71,0 23.29,-2.12 36,-2.12 l -741.13,-595.02 z"
   id="path27-8"
   style="fill:#2d6fe1" />
   <path
   class="fil1"
   d="m 342.76,395.47 235.05,188.46 c 4.23,-6.35 10.59,-12.7 16.94,-16.94 L 361.82,380.65 c -6.35,4.23 -12.7,8.47 -19.06,14.82 z m 885.13,709.37 755.96,607.73 c 10.58,0 21.17,-2.11 33.88,-2.11 l -681.85,-548.44 z"
   id="path28-6"
   style="fill:#2d6fe1" />
   <path
   class="fil1"
   d="m 357.59,382.77 232.92,186.34 c 6.36,-4.24 14.83,-10.59 21.18,-12.71 L 378.76,367.94 c -8.47,4.24 -14.82,10.59 -21.17,14.83 z m 957.12,768.66 696.66,559.03 c 10.59,0 21.18,-2.12 31.77,-4.24 L 1422.7,1206.48 Z"
   id="path29-2"
   style="fill:#2d6fe1" />
   <path
   class="fil1"
   d="m 374.53,370.06 232.93,188.46 c 6.35,-4.23 14.82,-8.47 23.29,-12.7 L 393.59,357.36 c -6.36,4.23 -12.71,8.47 -19.06,12.7 z m 1027,825.84 635.25,510.32 c 10.59,0 21.18,-2.12 31.77,-4.23 l -559.03,-448.92 z"
   id="path30-1"
   style="fill:#2d6fe1" />
   <path
   class="fil1"
   d="M 389.35,359.47 624.4,547.93 c 8.47,-4.23 16.94,-6.35 27.52,-10.58 L 412.64,344.65 c -6.35,4.24 -12.7,8.47 -16.94,10.59 -2.11,2.12 -4.23,2.12 -6.35,4.23 z m 1099,880.89 573.84,463.74 c 10.59,-2.11 21.18,-4.23 31.77,-6.35 l -497.62,-400.21 z"
   id="path31-8"
   style="fill:#2d6fe1" />
   <path
   class="fil2"
   d="m 408.41,348.89 237.16,190.57 c 8.47,-2.11 19.06,-6.35 29.65,-6.35 L 429.58,336.18 c -6.35,4.24 -14.82,8.47 -21.17,12.71 z m 1166.75,938.06 512.44,410.8 c 8.48,-2.12 19.06,-4.23 29.65,-6.35 l -434.09,-349.39 z"
   id="path32-7"
   style="fill:#3373e1" />
   <path
   class="fil3"
   d="m 425.35,338.3 243.51,194.81 c 10.59,-2.12 21.18,-4.23 31.77,-4.23 L 448.64,325.59 c -8.47,4.24 -16.94,8.47 -23.29,12.71 z m 1236.63,993.12 448.92,362.1 c 8.47,-4.24 19.06,-6.36 27.53,-8.47 l -374.81,-302.81 c -4.23,-2.12 -10.58,-4.24 -14.82,-6.35 z"
   id="path33-5"
   style="fill:#3675e2" />
   <path
   class="fil4"
   d="m 444.41,327.71 249.86,201.17 c 12.71,0 23.3,0 36,0 L 467.7,317.12 c -8.47,2.12 -16.94,6.36 -23.29,10.59 z m 1304.39,1048.18 385.39,311.27 c 8.47,-4.23 16.94,-6.35 27.53,-8.47 L 1816.56,1401.3 c -23.29,-6.36 -44.47,-14.83 -67.76,-25.41 z"
   id="path34-7"
   style="fill:#3977e2" />
   <path
   class="fil5"
   d="m 461.35,319.24 262.57,209.64 c 12.7,0 25.41,0 40.23,2.11 L 486.76,306.54 c -8.47,4.23 -16.94,8.47 -25.41,12.7 z m 1342.51,1077.82 351.51,281.63 c 8.47,-2.11 19.05,-4.23 27.52,-8.47 l -323.98,-260.45 c -19.06,-2.12 -36,-6.36 -55.05,-12.71 z"
   id="path35-7"
   style="fill:#3d7ae3" />
   <path
   class="fil6"
   d="m 482.52,308.65 273.16,220.23 c 14.82,2.11 31.76,4.23 46.59,6.35 L 507.93,300.18 c -8.47,2.12 -16.94,6.36 -25.41,8.47 z m 1365.8,1099 328.22,264.69 c 8.47,-4.23 19.06,-6.35 27.53,-10.59 L 1894.91,1414 c -14.82,0 -31.76,-2.12 -46.59,-6.35 z"
   id="path36-4"
   style="fill:#407ce3" />
   <path
   class="fil7"
   d="m 501.58,302.3 290.1,232.93 c 16.94,2.12 36,6.35 52.94,10.59 L 529.11,291.71 c -8.47,4.24 -16.94,6.36 -27.53,10.59 z m 1384.86,1111.7 311.28,249.87 c 8.47,-2.12 16.94,-6.35 25.41,-10.59 l -296.46,-237.16 c -12.7,0 -27.52,-2.12 -40.23,-2.12 z m -639.49,-544.2 -67.76,-55.06 c -2.12,6.36 -4.24,10.59 -8.47,14.83 33.88,16.94 59.29,29.64 76.23,40.23 z"
   id="path37-0"
   style="fill:#437ee4" />
   <path
   class="fil8"
   d="M 522.75,293.83 834.03,543.7 c 19.06,4.23 40.23,10.59 59.29,16.94 L 550.28,285.36 c -8.47,2.12 -16.94,6.35 -27.53,8.47 z m 654.32,525.15 46.58,38.11 c 114.35,59.29 31.77,14.83 108,55.06 L 1189.77,797.8 c -4.23,8.47 -8.47,14.82 -12.7,21.18 z m 741.13,597.14 300.69,239.28 c 8.47,-2.12 14.82,-6.35 23.29,-10.59 L 1956.32,1414 c -12.71,2.12 -25.41,2.12 -38.12,2.12 z"
   id="path38-6"
   style="fill:#4781e4" />
   <path
   class="fil9"
   d="M 546.05,287.48 880.62,556.4 c 23.29,6.36 44.46,14.83 67.76,23.3 L 573.57,279.01 c -8.47,2.12 -19.05,4.23 -27.52,8.47 z m 641.61,514.56 122.81,99.52 c 14.83,8.47 42.35,23.29 101.64,52.94 0,0 0,0 2.12,0 L 1200.36,782.98 c -4.23,6.35 -8.47,12.7 -12.7,19.06 z m 760.19,611.96 290.1,232.93 c 8.47,-4.24 14.82,-8.47 23.29,-12.71 l -279.51,-222.34 c -10.59,0 -21.18,2.12 -33.88,2.12 z"
   id="path39-9"
   style="fill:#4a83e5" />
   <path
   class="fil10"
   d="m 569.34,281.13 364.21,292.21 c 25.41,10.59 50.82,19.06 74.12,29.65 L 598.98,274.77 c -10.58,2.12 -21.17,4.24 -29.64,6.36 z m 628.9,506.08 201.17,160.94 c 4.23,2.11 8.47,4.23 12.7,6.35 4.24,-4.24 8.47,-10.59 14.83,-14.82 L 1210.95,766.04 c -6.35,6.35 -10.59,12.7 -12.71,21.17 z m 777.14,624.67 281.63,226.58 c 8.47,-4.24 14.82,-8.47 23.29,-12.71 l -273.16,-220.22 c -10.59,2.12 -21.18,4.24 -31.76,6.35 z"
   id="path40-0"
   style="fill:#4d85e5" />
   <path
   class="fil11"
   d="m 592.63,274.77 398.1,321.87 c 29.64,10.59 55.05,21.17 76.23,29.64 L 624.4,270.54 c -10.59,0 -21.18,2.12 -31.77,4.23 z m 614.08,495.5 215.99,171.52 c 4.24,-4.23 10.59,-10.58 14.82,-16.94 L 1221.54,749.1 c -6.36,6.35 -10.59,14.82 -14.83,21.17 z m 794.08,637.38 275.27,220.22 c 6.36,-4.23 14.83,-8.47 21.18,-12.7 l -266.81,-215.99 c -10.59,4.23 -19.06,6.35 -29.64,8.47 z"
   id="path41-2"
   style="fill:#5187e6" />
   <path
   class="fil12"
   d="m 618.04,270.54 434.1,349.39 c 8.47,4.24 16.94,6.35 25.41,10.59 2.11,-6.35 4.23,-10.59 6.35,-14.82 L 649.81,266.3 c -10.59,2.12 -21.18,2.12 -31.77,4.24 z m 599.26,482.79 218.11,175.76 c 4.23,-6.35 10.58,-12.71 14.82,-19.06 L 1230.01,732.16 c -4.24,8.47 -8.47,14.82 -12.71,21.17 z m 806.78,647.97 268.92,215.98 c 6.36,-4.23 14.83,-8.47 21.18,-12.7 l -262.57,-211.75 c -10.59,2.11 -19.06,6.35 -27.53,8.47 z"
   id="path42-1"
   style="fill:#548ae6" />
   <path
   class="fil13"
   d="m 643.45,266.3 438.33,353.63 c 4.24,-6.35 8.47,-14.82 12.71,-21.18 L 677.33,264.19 c -10.58,0 -23.29,2.11 -33.88,2.11 z m 584.44,470.09 220.22,177.88 c 4.24,-6.36 8.47,-12.71 14.83,-19.06 L 1240.6,717.34 c -4.24,6.35 -8.48,12.7 -12.71,19.05 z m 817.36,658.55 264.7,211.76 c 8.47,-4.24 14.82,-8.47 21.17,-12.71 l -260.46,-209.63 c -8.47,2.11 -16.94,6.35 -25.41,10.58 z"
   id="path43-6"
   style="fill:#578ce6" />
   <path
   class="fil14"
   d="m 670.98,264.19 421.39,338.8 c 4.23,-6.35 8.47,-14.82 12.7,-19.06 L 706.98,262.07 c -12.71,0 -23.29,2.12 -36,2.12 z m 567.5,457.38 220.22,175.76 c 6.35,-4.24 10.59,-10.59 14.82,-16.94 L 1251.18,700.4 c -4.23,6.35 -8.47,14.82 -12.7,21.17 z m 827.95,664.9 260.46,209.64 c 6.35,-4.24 14.82,-10.59 21.17,-14.82 l -258.34,-207.52 c -8.47,4.23 -16.94,8.47 -23.29,12.7 z"
   id="path44-8"
   style="fill:#5a8ee7" />
   <path
   class="fil15"
   d="m 698.51,262.07 404.45,323.98 c 4.23,-6.35 8.47,-12.71 12.7,-19.06 L 736.62,262.07 c -10.58,0 -25.41,0 -38.11,0 z m 550.56,442.56 222.34,177.87 c 4.23,-6.35 8.47,-12.7 14.82,-19.05 L 1261.77,685.57 c -4.23,6.36 -8.47,12.71 -12.7,19.06 z m 836.42,671.26 258.34,207.51 c 6.35,-4.23 12.7,-8.47 19.05,-14.82 l -256.22,-205.4 c -6.35,4.24 -14.82,8.47 -21.17,12.71 z"
   id="path45-0"
   style="fill:#5e91e7" />
   <path
   class="fil16"
   d="m 730.27,262.07 383.27,309.16 c 4.24,-8.47 8.47,-14.83 12.71,-21.18 L 770.5,264.19 c -8.47,0 -16.94,0 -27.52,-2.12 -4.24,0 -8.47,0 -12.71,0 z m 529.38,427.74 222.34,177.87 c 6.36,-6.35 10.59,-12.7 14.83,-19.06 L 1272.36,668.63 c -4.24,6.36 -8.47,12.71 -12.71,21.18 z m 842.78,675.49 256.22,207.52 c 6.35,-4.24 12.7,-10.59 19.06,-14.83 l -254.11,-205.4 c -6.35,4.24 -14.82,8.47 -21.17,12.71 z"
   id="path46-9"
   style="fill:#6193e8" />
   <path
   class="fil17"
   d="m 762.03,264.19 359.98,290.1 c 6.36,-8.47 10.59,-14.83 12.71,-21.18 L 804.38,268.42 c -12.7,-2.12 -27.52,-4.23 -42.35,-4.23 z m 508.21,408.68 224.46,179.99 c 4.23,-6.35 10.59,-12.71 14.82,-19.06 L 1285.06,651.69 c -6.35,8.47 -10.58,14.83 -14.82,21.18 z m 849.13,681.84 256.22,205.4 c 6.35,-4.23 12.7,-10.59 16.94,-14.82 l -254.1,-205.4 c -6.36,6.35 -12.71,10.59 -19.06,14.82 z"
   id="path47-6"
   style="fill:#6495e8" />
   <path
   class="fil18"
   d="m 795.91,266.3 336.69,271.05 c 6.35,-10.59 10.59,-16.94 12.71,-21.18 L 842.5,272.66 c -14.82,-2.12 -31.76,-4.24 -46.59,-6.36 z m 484.92,389.63 226.57,182.11 c 4.24,-6.36 8.47,-12.71 14.83,-19.06 L 1295.65,636.87 c -6.35,6.35 -10.59,12.71 -14.82,19.06 z m 855.48,688.19 254.1,203.29 c 6.35,-4.24 12.71,-10.59 16.94,-16.94 l -254.1,-203.29 c -4.24,6.36 -10.59,10.59 -16.94,16.94 z"
   id="path48-0"
   style="fill:#6897e9" />
   <path
   class="fil19"
   d="m 831.91,270.54 311.28,249.87 c 10.59,-14.83 0,0 12.7,-21.18 L 880.62,279.01 c -14.83,-2.12 -31.77,-6.35 -48.71,-8.47 z m 459.51,370.57 226.57,182.1 c 6.35,-6.35 10.59,-12.7 14.82,-19.06 L 1306.24,619.93 c -4.24,8.47 -10.59,14.82 -14.82,21.18 z m 859.71,690.31 254.1,203.28 c 4.24,-6.35 10.59,-10.59 16.94,-16.94 l -254.1,-203.28 c -6.35,4.23 -10.59,10.59 -16.94,16.94 z"
   id="path49-8"
   style="fill:#6b9ae9" />
   <path
   class="fil20"
   d="m 872.15,276.89 281.63,226.58 c 2.11,-2.12 6.35,-8.47 12.7,-19.06 L 922.97,289.6 c -16.94,-4.24 -33.88,-8.47 -50.82,-12.71 z M 1302,624.17 1530.7,808.39 c 4.23,-6.35 10.58,-12.71 14.82,-19.06 L 1316.83,605.11 c -4.24,6.35 -8.47,12.7 -14.83,19.06 z m 861.84,692.43 254.1,205.4 c 6.35,-6.36 12.7,-12.71 16.94,-16.94 l -254.1,-205.4 c -4.24,6.35 -10.59,12.7 -16.94,16.94 z"
   id="path50-5"
   style="fill:#6e9cea" />
   <path
   class="fil21"
   d="m 912.38,287.48 249.87,201.16 c 4.23,-6.35 8.47,-12.7 12.7,-21.17 L 969.55,302.3 c -19.06,-6.35 -38.11,-10.59 -57.17,-14.82 z m 402.33,321.86 228.69,184.23 c 4.24,-6.36 8.47,-12.71 14.82,-19.06 L 1327.41,588.17 c -4.23,6.35 -8.47,14.82 -12.7,21.17 z m 863.95,694.55 254.1,203.28 c 4.24,-4.23 10.59,-10.58 16.94,-16.94 l -256.22,-205.4 c -4.23,6.36 -10.59,12.71 -14.82,19.06 z"
   id="path51-0"
   style="fill:#729eea" />
   <path
   class="fil22"
   d="m 958.96,298.07 213.87,173.63 c 4.24,-6.35 8.47,-12.7 12.71,-21.17 L 1020.37,317.12 c -21.17,-6.35 -40.23,-12.7 -61.41,-19.05 z m 366.34,294.33 228.69,186.34 c 6.35,-6.35 10.59,-12.7 16.94,-19.05 L 1338,573.34 c -4.23,6.36 -8.47,12.71 -12.7,19.06 z m 866.06,696.67 254.11,205.4 c 6.35,-6.35 10.58,-12.71 16.94,-19.06 l -256.22,-205.4 c -4.24,6.35 -10.59,12.71 -14.83,19.06 z"
   id="path52-1"
   style="fill:#75a1eb" />
   <path
   class="fil23"
   d="m 1007.67,312.89 175.75,141.87 c 4.24,-6.35 8.47,-12.7 12.71,-21.17 l -120.7,-97.41 c -23.29,-8.47 -44.47,-14.82 -67.76,-23.29 z m 328.21,264.69 230.81,186.34 c 6.36,-6.35 10.59,-12.7 16.94,-19.06 L 1348.59,558.52 c -4.24,4.24 -8.47,12.71 -12.71,19.06 z m 866.07,696.67 256.22,205.4 c 6.35,-6.36 10.59,-12.71 14.82,-19.06 l -256.22,-205.4 c -4.23,6.35 -8.47,12.7 -14.82,19.06 z"
   id="path53-0"
   style="fill:#78a3eb" />
   <path
   class="fil24"
   d="m 1060.61,331.95 133.4,105.87 c 4.23,-6.35 6.35,-12.7 12.7,-21.17 l -74.11,-57.18 c -21.17,-8.47 -46.58,-19.05 -71.99,-27.52 z m 285.86,228.69 232.93,188.46 c 6.35,-6.35 10.59,-12.71 16.94,-16.94 L 1361.29,541.58 c -4.23,6.35 -10.58,12.71 -14.82,19.06 z m 868.19,698.78 256.22,205.4 c 4.23,-6.35 10.58,-12.7 14.82,-19.06 l -258.34,-207.51 c -4.23,6.35 -8.47,14.82 -12.7,21.17 z"
   id="path54-4"
   style="fill:#7ca5ec" />
   <path
   class="fil25"
   d="m 1117.78,353.12 84.7,67.76 c 4.23,-6.35 8.47,-12.7 12.7,-19.05 l -21.17,-16.95 c -23.29,-10.58 -48.7,-21.17 -76.23,-31.76 z m 239.28,192.7 235.04,188.46 c 6.36,-6.36 12.71,-10.59 16.94,-16.94 L 1371.88,526.76 c -4.23,6.35 -8.47,12.7 -14.82,19.06 z m 868.18,696.66 258.34,207.52 c 4.24,-6.35 8.47,-12.71 12.71,-19.06 l -258.34,-209.63 c -4.24,8.47 -8.47,14.82 -12.71,21.17 z"
   id="path55-2"
   style="fill:#7fa7ec" />
   <path
   class="fil26"
   d="m 1179.19,378.53 33.88,27.53 c 2.11,-4.23 4.23,-8.47 6.35,-12.7 -12.71,-4.24 -25.41,-10.59 -40.23,-14.83 z m 190.57,152.46 237.17,190.58 c 4.23,-6.35 10.58,-12.7 16.94,-16.94 l -241.4,-194.81 c -4.24,6.35 -8.47,12.7 -12.71,21.17 z m 863.95,694.55 260.46,209.64 c 4.23,-6.36 8.47,-12.71 14.82,-21.18 l -262.57,-209.63 c -4.24,8.47 -8.47,14.82 -12.71,21.17 z"
   id="path56-0"
   style="fill:#82aaec" />
   <path
   class="fil27"
   d="m 1380.35,514.05 239.28,192.7 c 6.35,-4.24 12.71,-10.59 16.94,-16.94 L 1395.17,495 c -2.11,2.11 -4.23,6.35 -6.35,8.47 -2.12,2.11 -6.35,6.35 -8.47,10.58 z m 863.95,694.55 260.46,209.64 c 4.23,-6.36 10.58,-12.71 14.82,-19.06 l -264.69,-211.75 c -4.24,6.35 -6.35,14.82 -10.59,21.17 z"
   id="path57-1"
   style="fill:#85aced" />
   <path
   class="fil28"
   d="m 1390.94,499.23 243.51,194.81 c 6.36,-6.35 10.59,-10.58 16.94,-16.94 L 1407.88,480.17 c -6.35,6.36 -10.59,12.71 -16.94,19.06 z m 861.83,692.43 262.57,211.75 c 6.36,-6.35 10.59,-14.82 14.83,-21.17 l -266.81,-213.87 c -4.24,8.47 -6.35,14.82 -10.59,23.29 z"
   id="path58-9"
   style="fill:#89aeed" />
   <path
   class="fil29"
   d="m 1403.64,484.41 245.64,196.93 c 4.23,-6.35 10.58,-10.59 16.94,-16.94 L 1420.58,465.35 c -6.35,6.35 -10.58,12.71 -16.94,19.06 z m 857.6,688.19 264.69,213.87 c 4.24,-6.35 8.47,-12.7 12.71,-21.17 l -268.93,-215.99 c -2.12,8.47 -6.35,16.94 -8.47,23.29 z"
   id="path59-8"
   style="fill:#8cb1ee" />
   <path
   class="fil30"
   d="m 1416.35,469.59 247.75,199.04 c 6.35,-6.35 12.71,-10.58 19.06,-14.82 L 1433.29,452.65 c -6.35,6.35 -10.59,10.58 -16.94,16.94 z m 851.24,683.96 268.93,215.98 c 4.24,-6.35 8.47,-12.7 12.71,-21.17 l -273.17,-218.11 c -2.11,8.47 -4.23,16.94 -8.47,23.3 z"
   id="path60-0"
   style="fill:#8fb3ee" />
   <path
   class="fil31"
   d="m 1429.05,456.88 249.87,199.05 c 6.36,-4.24 12.71,-10.59 19.06,-14.82 L 1445.99,439.94 c -4.23,4.24 -10.58,10.59 -16.94,16.94 z m 844.9,677.61 273.16,218.1 c 2.12,-6.35 6.35,-14.82 10.59,-21.17 l -275.28,-222.34 c -2.12,8.47 -4.24,16.94 -8.47,25.41 z"
   id="path61-2"
   style="fill:#93b5ef" />
   <path
   class="fil32"
   d="m 1443.88,442.06 249.87,201.16 c 8.47,-4.23 14.82,-8.47 21.17,-12.7 l -254.1,-205.4 c -6.35,6.35 -10.59,10.59 -16.94,16.94 z m 836.42,673.37 275.28,220.22 c 4.23,-6.35 6.35,-14.82 10.59,-21.17 l -279.52,-224.46 c -2.12,8.47 -4.23,16.94 -6.35,25.41 z"
   id="path62-7"
   style="fill:#96b8ef" />
   <path
   class="fil33"
   d="m 1458.7,429.35 251.99,203.29 c 8.47,-4.24 14.82,-8.47 23.29,-12.71 L 1475.64,412.41 c -6.35,6.36 -12.7,10.59 -16.94,16.94 z m 827.95,664.91 277.4,224.45 c 4.23,-8.47 6.35,-14.82 10.59,-23.29 l -283.75,-226.57 c -2.12,8.47 -2.12,16.94 -4.24,25.41 z"
   id="path63-8"
   style="fill:#99baf0" />
   <path
   class="fil34"
   d="m 1473.52,416.65 256.22,205.4 c 2.12,0 4.24,-2.12 6.36,-2.12 4.23,-4.23 10.58,-6.35 16.94,-8.47 L 1492.58,401.83 c -6.35,4.23 -12.7,8.47 -19.06,14.82 z m 817.37,656.43 281.63,226.58 c 2.12,-6.36 6.35,-14.83 10.59,-23.3 l -287.99,-230.81 c -2.12,10.59 -4.23,19.06 -4.23,27.53 z"
   id="path64-5"
   style="fill:#9dbcf0" />
   <path
   class="fil35"
   d="m 1488.35,403.94 260.45,209.64 c 6.35,-4.24 14.82,-8.47 23.29,-10.59 L 1507.4,389.12 c -6.35,4.24 -12.7,10.59 -19.05,14.82 z m 804.65,647.97 287.99,230.81 c 2.12,-8.47 6.35,-16.94 8.47,-23.3 l -292.22,-235.04 c -2.12,8.47 -2.12,19.06 -4.24,27.53 z"
   id="path65-4"
   style="fill:#a0bef1" />
   <path
   class="fil36"
   d="m 1503.17,393.36 264.69,211.75 c 8.47,-4.24 16.94,-8.47 25.41,-10.59 L 1524.34,378.53 c -6.35,4.24 -12.7,8.47 -21.17,14.83 z m 794.07,635.25 290.1,235.05 c 4.24,-8.47 6.35,-16.94 8.47,-23.3 l -296.45,-239.28 c -2.12,8.47 -2.12,19.06 -2.12,27.53 z"
   id="path66-0"
   style="fill:#a3c1f1" />
   <path
   class="fil37"
   d="m 1520.11,380.65 266.81,215.99 c 10.58,-4.24 19.05,-6.36 27.52,-10.59 L 1541.28,367.94 c -6.35,4.24 -14.82,8.47 -21.17,12.71 z m 777.13,624.67 296.45,239.28 c 4.24,-8.47 6.36,-16.94 8.47,-25.41 l -302.8,-243.52 c 0,10.59 0,21.18 -2.12,29.65 z"
   id="path67-0"
   style="fill:#a7c3f2" />
   <path
   class="fil38"
   d="m 1537.05,370.06 273.16,218.11 c 8.47,-2.12 19.06,-4.24 27.53,-6.36 l -277.4,-224.45 c -8.47,4.23 -14.82,8.47 -23.29,12.7 z m 762.31,611.97 302.8,243.51 c 2.12,-8.47 4.24,-16.94 6.36,-25.41 L 2297.24,950.26 c 2.12,10.59 2.12,21.18 2.12,31.77 z"
   id="path68-1"
   style="fill:#aac5f2" />
   <path
   class="fil39"
   d="m 1556.11,359.47 275.27,222.34 c 10.59,-2.11 21.18,-4.23 31.77,-6.35 L 1577.28,346.77 c -6.35,4.23 -14.82,8.47 -21.17,12.7 z m 741.13,597.15 309.16,247.75 c 4.23,-8.47 6.35,-14.83 8.47,-23.3 L 2295.12,924.85 c 2.12,10.59 2.12,21.18 2.12,31.77 z"
   id="path69-0"
   style="fill:#adc8f2" />
   <path
   class="fil40"
   d="m 1573.05,348.89 283.74,228.69 c 10.59,-2.12 21.18,-4.24 31.77,-4.24 L 1596.34,338.3 c -6.35,4.23 -14.82,8.47 -23.29,10.59 z m 724.19,582.32 315.51,254.1 c 2.12,-8.47 4.24,-16.94 6.35,-25.41 L 2290.89,895.21 c 2.11,12.7 4.23,23.29 6.35,36 z"
   id="path70-4"
   style="fill:#b0caf3" />
   <path
   class="fil41"
   d="m 1592.1,340.42 290.11,232.92 c 12.7,0 25.41,-2.11 35.99,-2.11 l -300.69,-241.4 c -8.47,2.12 -16.94,6.35 -25.41,10.59 z m 700.9,563.26 323.99,260.45 c 2.11,-8.47 4.23,-16.94 6.35,-25.41 L 2284.53,865.56 c 4.24,12.71 6.36,25.41 8.47,38.12 z"
   id="path71-3"
   style="fill:#b4ccf3" />
   <path
   class="fil42"
   d="m 1611.16,331.95 300.69,239.28 c 12.71,0 25.41,0 38.12,2.11 l -313.4,-251.98 c -8.47,2.12 -16.94,6.35 -25.41,10.59 z m 675.49,542.08 336.69,268.93 c 0,-8.47 2.12,-16.94 4.23,-25.41 L 2276.06,833.8 c 4.24,12.71 8.47,27.53 10.59,40.23 z"
   id="path72-6"
   style="fill:#b7cef4" />
   <path
   class="fil43"
   d="m 1632.34,323.48 309.16,249.86 c 16.94,0 31.76,2.12 46.58,4.24 L 1657.75,312.89 c -8.47,4.23 -16.94,6.35 -25.41,10.59 z m 645.84,518.79 347.28,279.51 c 2.11,-8.47 4.23,-16.94 6.35,-27.52 L 2263.36,799.92 c 4.23,12.7 10.59,27.53 14.82,42.35 z"
   id="path73-9"
   style="fill:#bad1f4" />
   <path
   class="fil44"
   d="m 1653.51,315.01 323.98,260.45 c 19.06,4.24 36,8.47 55.06,12.71 L 1678.92,306.54 c -8.47,2.11 -16.94,6.35 -25.41,8.47 z m 611.97,493.38 364.21,292.22 c 2.12,-8.47 2.12,-19.06 4.24,-27.53 L 2242.18,757.57 c 8.47,16.94 16.94,33.88 23.3,50.82 z"
   id="path74-0"
   style="fill:#bed3f5" />
   <path
   class="fil45"
   d="m 1674.69,308.65 345.15,277.4 c 27.53,6.35 52.94,16.94 78.35,31.76 L 1702.22,300.18 c -8.47,2.12 -19.06,4.24 -27.53,8.47 z m 573.85,459.51 385.39,309.16 c 0,-8.47 0,-19.06 2.11,-27.53 L 2199.83,700.4 c 8.47,8.47 16.94,19.05 23.3,27.52 8.47,12.71 16.94,27.53 25.41,40.24 z"
   id="path75-4"
   style="fill:#c1d5f5" />
   <path
   class="fil46"
   d="m 1695.86,300.18 381.16,307.05 c 55.05,25.41 101.64,63.52 137.64,110.11 l 421.38,338.8 c 0,-10.59 0,-21.17 0,-29.65 L 1725.51,293.83 c -10.59,2.12 -19.06,4.24 -29.65,6.35 z"
   id="path76-0"
   style="fill:#c4d8f6" />
   <path
   class="fil47"
   d="m 1719.16,295.95 916.88,736.9 c 2.12,-10.59 2.12,-21.18 2.12,-31.77 L 1748.8,287.48 c -8.47,2.12 -19.06,4.23 -29.64,8.47 z"
   id="path77-8"
   style="fill:#c8daf6" />
   <path
   class="fil48"
   d="m 1744.57,289.6 893.59,717.84 c 0,-8.47 0,-19.06 0,-29.65 L 1774.21,283.24 c -10.59,2.12 -21.17,4.24 -29.64,6.36 z"
   id="path78-2"
   style="fill:#cbdcf7" />
   <path
   class="fil49"
   d="m 1767.86,285.36 870.3,698.78 c 0,-10.58 0,-21.17 -2.12,-31.76 L 1799.62,279.01 c -10.59,2.12 -21.17,4.23 -31.76,6.35 z"
   id="path79-1"
   style="fill:#cedef7" />
   <path
   class="fil50"
   d="m 1793.27,281.13 844.89,677.6 c -2.12,-10.58 -2.12,-21.17 -2.12,-31.76 L 1827.15,276.89 c -10.59,0 -23.29,2.12 -33.88,4.24 z"
   id="path80-6"
   style="fill:#d2e1f8" />
   <path
   class="fil51"
   d="m 1820.8,276.89 815.24,656.43 c -2.11,-12.7 -2.11,-23.29 -4.23,-33.88 L 1854.68,274.77 c -10.59,0 -23.3,2.12 -33.88,2.12 z"
   id="path81-9"
   style="fill:#d5e3f8" />
   <path
   class="fil52"
   d="m 1848.32,274.77 785.61,631.03 c -2.12,-10.59 -4.24,-23.3 -4.24,-33.88 L 1884.32,272.66 c -12.7,0 -25.41,2.11 -36,2.11 z"
   id="path82-8"
   style="fill:#d8e5f8" />
   <path
   class="fil53"
   d="m 1875.85,272.66 753.84,605.61 c -2.12,-10.59 -4.23,-23.29 -6.35,-36 L 1913.97,272.66 c -12.71,0 -25.41,0 -38.12,0 z"
   id="path83-9"
   style="fill:#dbe8f9" />
   <path
   class="fil54"
   d="m 1905.5,272.66 719.96,578.08 c -2.12,-12.7 -6.36,-25.41 -8.47,-38.12 L 1945.73,272.66 c -12.7,0 -25.41,0 -40.23,0 z"
   id="path84-5"
   style="fill:#dfeaf9" />
   <path
   class="fil55"
   d="M 1937.26,272.66 2619.1,821.1 c -2.11,-12.71 -6.35,-25.42 -10.58,-38.12 L 1979.61,274.77 c -14.82,0 -27.53,-2.11 -42.35,-2.11 z"
   id="path85-0"
   style="fill:#e2ecfa" />
   <path
   class="fil56"
   d="m 1971.14,274.77 639.49,514.56 c -2.11,-12.7 -6.35,-25.41 -10.58,-40.23 L 2013.49,279.01 c -14.82,-2.12 -27.53,-2.12 -42.35,-4.24 z"
   id="path86-5"
   style="fill:#e5eefa" />
   <path
   class="fil57"
   d="m 2005.02,279.01 597.14,478.56 c -4.23,-14.82 -10.58,-27.53 -14.82,-42.35 L 2051.61,285.36 c -14.83,-2.12 -31.77,-6.35 -46.59,-6.35 z"
   id="path87-3"
   style="fill:#e9f1fb" />
   <path
   class="fil58"
   d="m 2043.14,283.24 546.32,440.45 c -4.24,-14.82 -10.59,-29.65 -16.94,-46.59 L 2091.84,293.83 c -16.94,-4.23 -31.76,-8.47 -48.7,-10.59 z"
   id="path88-5"
   style="fill:#ecf3fb" />
   <path
   class="fil59"
   d="m 2081.25,291.71 495.5,395.98 c -8.47,-16.94 -14.82,-33.88 -23.29,-48.7 L 2136.31,304.42 c -16.94,-4.24 -36,-10.59 -55.06,-12.71 z"
   id="path89-3"
   style="fill:#eff5fc" />
   <path
   class="fil60"
   d="m 2125.72,300.18 431.98,347.28 c -8.47,-16.94 -19.06,-36 -29.65,-52.94 L 2187.13,321.36 c -19.06,-8.47 -40.23,-14.82 -61.41,-21.18 z"
   id="path90-8"
   style="fill:#f3f8fc" />
   <path
   class="fil61"
   d="m 2174.42,315.01 359.98,290.1 c -12.7,-21.18 -25.41,-42.35 -40.23,-63.53 L 2250.65,344.65 c -25.41,-10.59 -50.82,-21.17 -76.23,-29.64 z"
   id="path91-2"
   style="fill:#f6fafd" />
   <path
   class="fil62"
   d="m 2231.6,338.3 273.16,218.1 c -6.36,-10.58 -14.83,-19.05 -21.18,-29.64 -8.47,-12.71 -19.06,-23.29 -29.64,-36 L 2314.18,378.53 C 2288.77,363.71 2261.24,351 2231.6,338.3 Z"
   id="path92-7"
   style="fill:#f9fcfd" />
   <path
   class="fil1"
   d="m 275,1615.17 -103.76,-84.7 -8.47,14.82 v 0 c 36,27.53 74.12,50.82 112.23,69.88 z"
   id="path93-1"
   style="fill:#2d6fe1" />
   <path
   class="fil1"
   d="m 169.13,1534.7 84.7,69.88 c 29.64,14.82 59.29,29.64 91.05,42.35 l -163.05,-133.4 c -4.23,6.35 -8.47,14.82 -12.7,21.17 z"
   id="path94-0"
   style="fill:#2d6fe1" />
   <path
   class="fil1"
   d="m 177.6,1517.76 152.46,122.82 c 23.29,8.47 46.58,16.94 69.88,25.41 L 190.3,1498.7 c -4.23,6.36 -8.47,12.71 -12.7,19.06 z"
   id="path95-4"
   style="fill:#2d6fe1" />
   <path
   class="fil1"
   d="m 188.19,1500.82 199.04,160.93 c 19.06,6.36 40.24,12.71 59.29,16.94 L 200.89,1481.76 c -4.23,6.36 -8.47,12.71 -12.7,19.06 z"
   id="path96-0"
   style="fill:#2d6fe1" />
   <path
   class="fil1"
   d="m 198.77,1486 237.17,190.58 c 16.94,4.23 35.99,8.47 55.05,12.7 L 211.48,1464.82 c -4.24,6.36 -8.47,12.71 -12.71,21.18 z"
   id="path97-8"
   style="fill:#2d6fe1" />
   <path
   class="fil63"
   d="m 207.24,1469.06 273.16,218.1 c 16.94,4.24 31.77,6.36 48.71,8.47 L 219.95,1447.88 c -2.12,6.35 -6.35,12.71 -12.71,21.18 z"
   id="path98-3"
   style="fill:#2d6ee1" />
   <path
   class="fil1"
   d="m 217.83,1452.12 302.81,243.51 c 14.82,2.12 31.76,4.24 46.58,6.36 L 230.54,1430.94 c -2.12,4.24 -4.24,8.47 -12.71,21.18 z"
   id="path99-7"
   style="fill:#2d6fe1" />
   <path
   class="fil1"
   d="m 228.42,1435.18 330.33,264.69 c 14.82,2.12 29.65,4.23 42.35,6.35 L 241.12,1414 c -12.7,21.18 -4.23,8.47 -12.7,21.18 z"
   id="path100-8"
   style="fill:#2d6fe1" />
   <path
   class="fil1"
   d="m 236.89,1418.24 355.74,285.86 c 14.83,2.12 29.65,2.12 42.35,4.24 L 249.59,1397.06 c -6.35,10.59 -8.47,16.94 -12.7,21.18 z"
   id="path101-5"
   style="fill:#2d6fe1" />
   <path
   class="fil1"
   d="m 247.48,1401.3 379.03,304.92 c 14.83,2.12 27.53,2.12 40.24,2.12 L 260.18,1380.12 c -6.35,8.47 -8.47,16.94 -12.7,21.18 z"
   id="path102-1"
   style="fill:#2d6fe1" />
   <path
   class="fil1"
   d="m 258.06,1384.36 402.33,323.98 c 12.71,0 25.41,0 38.12,0 L 268.65,1363.18 c -4.23,8.47 -8.47,14.82 -10.59,21.18 z"
   id="path103-4"
   style="fill:#2d6fe1" />
   <path
   class="fil1"
   d="m 266.53,1367.42 423.51,340.92 c 12.7,0 25.41,0 38.11,0 L 279.24,1348.36 c -4.24,6.35 -8.47,12.7 -12.71,19.06 z"
   id="path104-0"
   style="fill:#2d6fe1" />
   <path
   class="fil1"
   d="m 277.12,1352.59 442.56,355.75 c 12.71,-2.12 23.3,-2.12 36,-2.12 l -465.85,-374.8 c -4.24,6.35 -8.47,14.82 -12.71,21.17 z"
   id="path105-2"
   style="fill:#2d6fe1" />
   <path
   class="fil1"
   d="m 287.71,1335.65 461.62,370.57 c 10.59,0 23.29,-2.12 33.88,-4.23 L 298.3,1314.48 c -4.24,6.35 -8.47,14.82 -10.59,21.17 z"
   id="path106-5"
   style="fill:#2d6fe1" />
   <path
   class="fil1"
   d="m 296.18,1318.71 480.68,385.39 c 10.58,-2.11 21.17,-2.11 31.76,-4.23 L 359.7,1337.77 c -19.05,-8.47 -38.11,-19.06 -59.29,-27.53 0,2.12 -2.11,6.36 -4.23,8.47 z"
   id="path107-8"
   style="fill:#2d6fe1" />
   <path
   class="fil1"
   d="m 340.65,1329.3 461.62,370.57 c 10.58,0 21.17,-2.12 31.76,-4.24 L 440.17,1378 c -31.76,-14.82 -65.64,-33.88 -99.52,-48.7 z"
   id="path108-4"
   style="fill:#2d6fe1" />
   <path
   class="fil1"
   d="m 421.11,1369.53 406.57,326.1 c 10.59,0 21.17,-2.11 31.76,-4.23 L 507.93,1407.65 c -29.64,-10.59 -59.29,-25.41 -86.82,-38.12 z"
   id="path109-6"
   style="fill:#2d6fe1" />
   <path
   class="fil1"
   d="m 493.11,1401.3 359.98,290.1 c 10.59,-2.12 21.17,-4.24 29.64,-6.35 L 558.75,1424.59 c -23.29,-6.35 -44.47,-14.82 -65.64,-23.29 z"
   id="path110-6"
   style="fill:#2d6fe1" />
   <path
   class="fil1"
   d="m 548.16,1420.35 330.34,266.81 c 8.47,-2.11 19.06,-6.35 27.53,-8.47 L 601.1,1433.06 c -19.06,-2.12 -36,-6.35 -52.94,-12.71 z"
   id="path111-4"
   style="fill:#2d6fe1" />
   <path
   class="fil1"
   d="m 590.51,1430.94 311.28,249.87 c 8.47,-2.12 16.94,-6.35 27.53,-8.47 l -290.1,-232.93 c -16.94,-2.12 -31.76,-4.23 -48.71,-8.47 z"
   id="path112-6"
   style="fill:#2d6fe1" />
   <path
   class="fil1"
   d="m 628.63,1437.29 294.34,237.17 c 10.58,-4.24 19.05,-6.35 27.52,-8.47 L 670.98,1441.53 c -14.82,0 -27.53,-2.12 -42.35,-4.24 z"
   id="path113-3"
   style="fill:#2d6fe1" />
   <path
   class="fil1"
   d="m 664.63,1441.53 279.51,224.46 c 10.59,-2.12 19.06,-6.36 27.53,-8.47 L 702.74,1441.53 c -4.23,0 -10.58,0 -14.82,0 -8.47,0 -16.94,0 -23.29,0 z"
   id="path114-6"
   style="fill:#2d6fe1" />
   <path
   class="fil1"
   d="m 694.27,1441.53 271.05,218.1 c 8.47,-4.23 16.94,-6.35 25.41,-10.58 L 732.39,1439.41 c -10.59,2.12 -23.29,2.12 -38.12,2.12 z"
   id="path115-5"
   style="fill:#2d6fe1" />
   <path
   class="fil1"
   d="m 723.92,1441.53 262.57,209.63 c 8.47,-4.23 16.94,-8.47 23.29,-12.7 L 759.92,1437.29 c -10.59,2.12 -21.18,2.12 -36,4.24 z"
   id="path116-9"
   style="fill:#2d6fe1" />
   <path
   class="fil1"
   d="m 753.56,1439.41 251.99,203.28 c 8.47,-4.23 14.82,-8.47 23.29,-12.7 L 785.33,1433.06 c -8.47,2.12 -19.06,4.23 -31.77,6.35 z"
   id="path117-2"
   style="fill:#2d6fe1" />
   <path
   class="fil1"
   d="m 778.97,1435.18 245.64,196.93 c 8.47,-4.24 14.82,-8.47 21.17,-12.71 L 808.62,1428.82 c -8.47,2.12 -19.06,4.24 -29.65,6.36 z"
   id="path118-2"
   style="fill:#2d6fe1" />
   <path
   class="fil1"
   d="m 804.38,1428.82 237.17,192.7 c 8.47,-4.24 14.82,-8.47 21.17,-12.71 L 829.8,1420.35 c -8.47,4.24 -16.95,6.36 -25.42,8.47 z"
   id="path119-4"
   style="fill:#2d6fe1" />
   <path
   class="fil1"
   d="m 825.56,1422.47 232.93,188.46 c 8.47,-4.23 14.82,-10.59 21.17,-14.82 L 846.74,1409.77 c -6.36,4.23 -12.71,8.47 -21.18,12.7 z"
   id="path120-0"
   style="fill:#2d6fe1" />
   <path
   class="fil1"
   d="m 842.5,1411.88 232.93,188.46 c 6.35,-6.35 12.7,-10.58 19.06,-16.94 L 863.68,1399.18 c -6.36,4.23 -12.71,8.47 -21.18,12.7 z"
   id="path121-5"
   style="fill:#2d6fe1" />
   <path
   class="fil1"
   d="m 859.44,1401.3 230.81,186.34 c 6.35,-6.35 12.71,-10.59 19.06,-16.94 L 878.5,1386.47 c -6.35,4.24 -12.71,10.59 -19.06,14.83 z"
   id="path122-6"
   style="fill:#2d6fe1" />
   <path
   class="fil1"
   d="m 876.38,1388.59 228.69,184.23 c 6.36,-4.24 10.59,-10.59 16.94,-16.94 L 895.44,1373.77 c -8.47,6.35 -14.82,10.59 -19.06,14.82 z"
   id="path123-7"
   style="fill:#2d6fe1" />
   <path
   class="fil1"
   d="m 891.2,1378 226.58,182.11 c 6.35,-6.35 10.59,-12.7 14.82,-19.06 L 950.49,1394.94 c -12.7,-8.47 -29.64,-16.94 -46.58,-27.52 -4.24,4.23 -8.47,6.35 -12.71,10.58 z"
   id="path124-1"
   style="fill:#2d6fe1" />
   <path
   class="fil1"
   d="m 927.2,1380.12 203.28,165.17 c 4.24,-6.35 8.47,-12.71 12.71,-21.18 l -86.82,-69.88 c -67.76,-38.11 33.88,16.95 -129.17,-74.11 z"
   id="path125-5"
   style="fill:#2d6fe1" />
   <path
   class="fil1"
   d="m 1026.72,1437.29 114.35,91.06 c 4.24,-6.35 8.47,-12.71 10.59,-19.06 -139.76,-80.47 -118.58,-67.76 -124.94,-72 z"
   id="path126-6"
   style="fill:#2d6fe1" />
   <path
   class="fil1"
   d="m 1132.6,1498.7 19.06,12.71 c 0,0 0,-2.12 0,-2.12 -6.35,-4.23 -12.71,-8.47 -19.06,-10.59 z"
   id="path127-8"
   style="fill:#2d6fe1" />
  </g>
  <sodipodi:namedview
   id="namedview2"
   pagecolor="#ffffff"
   bordercolor="#cccccc"
   borderopacity="1"
   inkscape:showpageshadow="0"
   inkscape:pageopacity="1"
   inkscape:pagecheckerboard="0"
   inkscape:deskcolor="#d1d1d1"
   inkscape:document-units="mm"
   showgrid="false"
   inkscape:zoom="2.516144"
   inkscape:cx="67.166267"
   inkscape:cy="35.570301"
   inkscape:window-width="1920"
   inkscape:window-height="1009"
   inkscape:window-x="-8"
   inkscape:window-y="-8"
   inkscape:window-maximized="1"
   inkscape:current-layer="Warstwa_x0020_1" />
 </g>
</svg>
